# xmcd CD database file
#
# Track frame offsets:
#	150
#	14300
#	30822
#	50215
#	63267
#	80172
#	93615
#	106725
#	118470
#	134490
#	148722
#	164250
#	177825
#	193335
#	206070
#	219910
#
# Disc length: 3143 seconds
#
# Revision: 2
# Processed by: cddbd v1.5.2PL0 Copyright (c) Steve Scherf et al.
# Submitted via: CDex 1.70beta2
#
DISCID=ed0c4510
DTITLE=Various Artist - 093 - Die Hits aus Kilometer 330
DYEAR=1993
DGENRE=Country
TTITLE0=Tom Astor - Take It Easy, nimms leicht
TTITLE1=Linda Feller - Warum kann ich nicht vergessen
TTITLE2=Jonny Hill - Hallo Teddybär
TTITLE3=Mike Herman and Booze Company - Verliebt in Country
TTITLE4=Western Union - Danke
TTITLE5=dagmar-The Lady of Country - Laß mich damit bloß in Ruhe
TTITLE6=Dichey Lee - Die Tür steht immer offen
TTITLE7=Greyhounds - Nimm es leicht
TTITLE8=Truck Stop - Ich möcht' so gern Dave Dudley hör'n
TTITLE9=Hanna and Daana - It's Countrytime In Germany
TTITLE10=Max Zwo - Lady Country - Music
TTITLE11=Frank Baum and Country Green - Hallo Nachbar, guten morgen 
TTITLE12=Joe Hodgkins Boss Band - Nimm dir Zeit für deine Freunde
TTITLE13=Country Rose and Ralf Paulson - Hallo Country Rose
TTITLE14=Rubber Duck - Pfui Teufel ist es in der Hölle schön
TTITLE15=Tex Haper - Auch ein Trucker hat ein Herz
EXTD=YEAR: 1993
EXTT0=
EXTT1=
EXTT2=
EXTT3=
EXTT4=
EXTT5=
EXTT6=
EXTT7=
EXTT8=
EXTT9=
EXTT10=
EXTT11=
EXTT12=
EXTT13=
EXTT14=
EXTT15=
PLAYORDER=
